<svg id="Layer_1" data-name="Layer 1" xmlns="http://www.w3.org/2000/svg" viewBox="0 0 256 256"><defs><style>.cls-1{fill:#e9e4e8;fill-rule:evenodd;}.cls-2{fill:#fff;}.cls-2,.cls-3,.cls-4{stroke:#62435c;stroke-linecap:round;stroke-linejoin:round;stroke-width:2px;}.cls-3{fill:none;}.cls-4{fill:#ef4f5b;}</style></defs><title>website assets</title><path class="cls-1" d="M175.36,192.85s-4.51,8.24-6.89,10.26-3,2.83-11.32,1.67-44-12.63-50.37-14.49S58.17,173.63,49.85,169c-7.61-4.24-16.94-6.75-14-20.59,3.18-15.1,10.52-31.71,13.25-37.67s7-16.51,10.13-21.85,3.11-7.54,14.57-14S96.93,62,104.12,58.59s19.92-9.42,27.6-10.71c7.33-1.22,10.14-3.79,20.4,7.28,10.58,11.39,15.29,19.89,20.82,29.46S188.2,111.46,190.57,119s4.12,12.68.88,26.43-6.08,22.64-8.56,30.06-8,18.26-7.53,17.41"/><circle class="cls-2" cx="158.1" cy="110.85" r="2.59"/><rect class="cls-2" x="83.08" y="81.22" width="83.47" height="87.38"/><rect class="cls-3" x="103.44" y="89.06" width="40.57" height="29.7"/><rect class="cls-3" x="103.44" y="128.82" width="40.57" height="29.41"/><line class="cls-3" x1="77.2" y1="98.06" x2="89.94" y2="98.06"/><line class="cls-3" x1="77.2" y1="124.29" x2="89.94" y2="124.29"/><line class="cls-3" x1="77.2" y1="150.52" x2="89.94" y2="150.52"/><circle class="cls-4" cx="173.58" cy="152.7" r="37.31"/><circle class="cls-2" cx="166.57" cy="148.18" r="16.17"/><line class="cls-3" x1="194.75" y1="174.72" x2="178.29" y2="159.33"/></svg>