<svg xmlns="http://www.w3.org/2000/svg" width="16" height="16" viewBox="0 0 16 16">
    <g fill="none" fill-rule="nonzero">
        <path fill="#FBBC05" d="M3.345 8c0-.508.087-.995.24-1.452L.893 4.535A7.685 7.685 0 0 0 .073 8c0 1.246.295 2.42.819 3.463l2.69-2.017A4.54 4.54 0 0 1 3.346 8"/>
        <path fill="#EB4335" d="M8.073 3.378a4.69 4.69 0 0 1 2.945 1.03l2.327-2.275A8.068 8.068 0 0 0 8.073.178c-3.162 0-5.879 1.77-7.18 4.357l2.692 2.013c.62-1.844 2.39-3.17 4.488-3.17"/>
        <path fill="#34A853" d="M8.073 12.622c-2.099 0-3.867-1.326-4.488-3.17L.893 11.465c1.301 2.587 4.018 4.357 7.18 4.357 1.951 0 3.814-.678 5.212-1.95l-2.556-1.934c-.72.445-1.629.684-2.656.684"/>
        <path fill="#4285F4" d="M15.71 8c0-.462-.074-.96-.183-1.422H8.073V9.6h4.29a3.523 3.523 0 0 1-1.634 2.338l2.556 1.935C14.754 12.538 15.71 10.55 15.71 8"/>
    </g>
</svg>
