<?xml version="1.0" encoding="utf-8"?>
<!-- Generator: Adobe Illustrator 22.1.0, SVG Export Plug-In . SVG Version: 6.00 Build 0)  -->
<svg version="1.1" id="Layer_1" xmlns="http://www.w3.org/2000/svg" xmlns:xlink="http://www.w3.org/1999/xlink" x="0px" y="0px"
	 viewBox="0 0 256 256" style="enable-background:new 0 0 256 256;" xml:space="preserve">
<style type="text/css">
	.st0{fill:#E9E4E8;}
	.st1{fill:#FFFFFF;stroke:#62435C;stroke-width:2;stroke-linecap:round;stroke-linejoin:round;stroke-miterlimit:10;}
	.st2{fill:#FFFFFF;stroke:#62435C;stroke-width:2;stroke-linecap:round;stroke-linejoin:round;}
	.st3{fill:none;stroke:#62435C;stroke-width:2;stroke-linecap:round;stroke-linejoin:round;}
	.st4{fill:#EF4F5B;stroke:#62435C;stroke-width:2;stroke-linecap:round;stroke-linejoin:round;}
</style>
<path class="st0" d="M175.4,192.8c0,0-4.5,8.2-6.9,10.3s-3,2.8-11.3,1.7s-44-12.6-50.4-14.5S58.2,173.6,49.8,169
	c-7.6-4.2-16.9-6.8-14-20.6c3.2-15.1,10.5-31.7,13.2-37.7s7-16.5,10.1-21.8s3.1-7.5,14.6-14S96.9,62,104.1,58.6s19.9-9.4,27.6-10.7
	c7.3-1.2,10.1-3.8,20.4,7.3c10.6,11.4,15.3,19.9,20.8,29.5s15.3,26.8,17.6,34.4s4.1,12.7,0.9,26.4s-6.1,22.6-8.6,30.1
	S174.9,193.7,175.4,192.8"/>
<polygon class="st1" points="117.3,181.1 88.5,99.3 106.8,67.3 140.1,78.8 172,162.9 "/>
<circle class="st1" cx="111.9" cy="85.3" r="4.6"/>
<line class="st2" x1="107.3" y1="124.2" x2="141.4" y2="110"/>
<line class="st2" x1="113.2" y1="140.5" x2="147.3" y2="126.3"/>
<line class="st3" x1="175.6" y1="155.9" x2="175.6" y2="165"/>
<circle class="st4" cx="181.8" cy="152.7" r="37.3"/>
<path class="st1" d="M201.7,142.3l-29.2,26l-10.8-12c-1.1-1.2-1-3.1,0.3-4.2h0c1.2-1.1,3.1-0.9,4.2,0.3l6.2,7.3l25.4-22
	c1.2-1,3-1,4.1,0.2l0,0C203,139.2,202.9,141.2,201.7,142.3z"/>
</svg>
