<svg id="Layer_1" data-name="Layer 1" xmlns="http://www.w3.org/2000/svg" viewBox="0 0 256 256"><defs><style>.cls-1{fill:#e9e4e8;fill-rule:evenodd;}.cls-2{fill:#fff;}.cls-2,.cls-3,.cls-4{stroke:#62435c;stroke-linecap:round;stroke-linejoin:round;stroke-width:2px;}.cls-3{fill:#ef4f5b;}.cls-4{fill:none;}</style></defs><title>website assets</title><path class="cls-1" d="M175.36,192.85s-4.51,8.24-6.89,10.26-3,2.83-11.32,1.67-44-12.63-50.37-14.49S58.17,173.63,49.85,169c-7.61-4.24-16.94-6.75-14-20.59,3.18-15.1,10.52-31.71,13.25-37.67s7-16.51,10.13-21.85,3.11-7.54,14.57-14S96.93,62,104.12,58.59s19.92-9.42,27.6-10.71c7.33-1.22,10.14-3.79,20.4,7.28,10.58,11.39,15.29,19.89,20.82,29.46S188.2,111.46,190.57,119s4.12,12.68.88,26.43-6.08,22.64-8.56,30.06-8,18.26-7.53,17.41"/><path class="cls-2" d="M82.26,99.05h91.52a2.32,2.32,0,0,1,2.32,2.32v37.84a0,0,0,0,1,0,0H79.94a0,0,0,0,1,0,0V101.37a2.32,2.32,0,0,1,2.32-2.32Z"/><path class="cls-2" d="M184.53,117.26a8.48,8.48,0,0,0-8.48,8.48v13.47H79.94V125.74a8.48,8.48,0,0,0-8.47-8.48h0A8.48,8.48,0,0,0,63,125.74v21.83a8.37,8.37,0,0,0,8.37,8.37H184.64a8.37,8.37,0,0,0,8.37-8.37V125.74A8.48,8.48,0,0,0,184.53,117.26Z"/><line class="cls-2" x1="79.94" y1="155.94" x2="79.94" y2="164.99"/><line class="cls-2" x1="175.62" y1="155.94" x2="175.62" y2="164.99"/><line class="cls-2" x1="127.46" y1="99.05" x2="127.46" y2="139.21"/><circle class="cls-3" cx="181.81" cy="152.7" r="37.31"/><path class="cls-2" d="M202.62,143.37A10.94,10.94,0,0,0,182,143a10.95,10.95,0,0,0-20.69.39c-.1.32-.19.64-.26,1a10.52,10.52,0,0,0,2.18,8.83l3.69,4.66-3.69-4.66c.89,1.94,17.69,21,19.48,22.13h0l18-22.09a10.55,10.55,0,0,0,2-9.72S202.64,143.41,202.62,143.37Z"/><line class="cls-4" x1="45.52" y1="166.35" x2="147.36" y2="166.35"/></svg>